<svg width="183" height="174" viewBox="0 0 183 174" fill="none" xmlns="http://www.w3.org/2000/svg">
<path d="M128.996 84.6179C147.147 61.6393 133.253 17.4712 157.5 29.1189C180.611 39.4434 185.304 82.859 148.5 87.1189C148.697 78.1873 147.1 74.4696 142.408 66.1911C133.904 118.689 90.9964 105.993 68.4964 109.118C32.4973 114.118 62.9965 152.103 86.4964 143.618C104.497 137.117 145.497 78.1184 173.496 89.1189C195.995 100.119 170.511 159.366 145.496 164.119C128.507 168.111 119.206 160.618 107.496 146.118C132.302 136.824 141.075 127.253 148.496 103.119C114.624 110.816 89.0842 183.229 42.5003 172.119C-3.5017 158.619 2.4945 98.5341 42.4964 90.6189C48.22 89.4864 57.5006 88.119 68.5003 90.1189C77.89 92.4225 83.2164 93.5926 93.5003 94.1189C112.583 95.0277 121.236 93.7752 128.996 84.6179ZM63.4915 52.1901C53.9918 3.6906 112.237 -14.8815 132.492 13.1179C149.492 36.6178 124.74 73.0235 92.4925 70.1179C73.4093 70.1178 44.9085 51.1907 44.9085 87.6901C-29.5902 77.1904 -3.00412 25.058 63.4925 55.1189C99.9922 71.6186 134.098 56.0254 124.409 45.6901C109.409 29.6906 73.4919 37.6905 63.4915 52.1901Z" fill="black"/>
</svg>
